<?xml version="1.0" standalone="no"?>
<!DOCTYPE svg PUBLIC "-//W3C//DTD SVG 20010904//EN"
 "http://www.w3.org/TR/2001/REC-SVG-20010904/DTD/svg10.dtd">
<svg version="1.0" xmlns="http://www.w3.org/2000/svg"
 width="1920.000000pt" height="1920.000000pt" viewBox="0 0 1920.000000 1920.000000"
 preserveAspectRatio="xMidYMid meet">
<metadata>
Created by potrace 1.14, written by Peter Selinger 2001-2017
</metadata>
<g transform="translate(0.000000,1920.000000) scale(0.100000,-0.100000)"
fill="#000000" stroke="none">
<path d="M9088 19195 c-2 -1 -88 -6 -193 -9 -104 -4 -219 -9 -255 -11 -252
-15 -306 -19 -435 -30 -27 -3 -81 -7 -120 -10 -38 -3 -92 -8 -120 -11 -27 -3
-68 -8 -89 -9 -22 -2 -60 -6 -85 -9 -25 -4 -64 -8 -86 -11 -93 -10 -208 -24
-245 -30 -14 -2 -77 -11 -140 -20 -63 -9 -126 -18 -139 -20 -13 -2 -45 -8 -70
-12 -25 -4 -48 -8 -51 -8 -3 -1 -27 -5 -55 -10 -27 -4 -59 -9 -70 -11 -11 -2
-46 -9 -77 -14 -32 -6 -70 -13 -85 -16 -158 -29 -699 -153 -823 -188 -8 -3
-42 -12 -75 -21 -163 -43 -660 -204 -760 -245 -11 -5 -69 -27 -130 -50 -95
-37 -366 -151 -490 -207 -65 -30 -426 -211 -480 -241 -27 -16 -77 -43 -110
-62 -97 -54 -336 -200 -388 -236 -26 -19 -49 -34 -52 -34 -4 0 -173 -116 -200
-137 -5 -5 -53 -39 -105 -78 -52 -38 -97 -72 -100 -75 -3 -3 -21 -17 -42 -32
-20 -15 -42 -33 -50 -40 -7 -7 -31 -26 -53 -43 -21 -16 -46 -36 -55 -45 -9 -8
-43 -37 -75 -65 -203 -170 -496 -458 -686 -676 -132 -151 -358 -437 -442 -559
-9 -14 -34 -50 -54 -80 -21 -30 -40 -57 -43 -60 -14 -13 -213 -332 -279 -448
-100 -176 -122 -218 -236 -447 -318 -645 -550 -1319 -730 -2120 -20 -88 -37
-171 -39 -185 -2 -14 -13 -72 -25 -130 -20 -102 -74 -414 -85 -495 -4 -22 -8
-51 -11 -65 -2 -14 -7 -47 -10 -75 -3 -27 -8 -63 -10 -80 -7 -47 -13 -93 -25
-190 -6 -49 -12 -106 -15 -125 -2 -19 -7 -62 -10 -95 -3 -33 -7 -82 -10 -110
-8 -67 -13 -135 -20 -225 -3 -41 -7 -97 -10 -125 -4 -45 -9 -124 -20 -305 -15
-247 -20 -492 -20 -960 1 -531 7 -784 30 -1125 4 -49 8 -119 10 -155 2 -36 6
-87 9 -115 3 -27 8 -86 12 -130 3 -44 7 -87 9 -95 2 -8 6 -53 10 -100 4 -47 9
-94 11 -105 2 -10 6 -51 10 -90 3 -38 8 -72 9 -75 2 -3 6 -37 10 -75 4 -39 9
-79 11 -90 2 -11 6 -40 9 -65 3 -25 8 -56 10 -70 3 -14 7 -41 10 -60 8 -58 25
-161 36 -225 6 -33 12 -69 14 -80 1 -11 5 -29 8 -40 3 -11 8 -38 11 -60 6 -52
73 -383 93 -460 8 -33 17 -71 20 -85 2 -14 18 -79 34 -145 184 -729 419 -1367
723 -1958 50 -97 96 -185 101 -195 9 -16 117 -205 140 -245 5 -9 42 -67 80
-128 39 -60 77 -121 85 -134 8 -13 42 -63 75 -111 33 -47 67 -96 75 -108 260
-378 641 -800 1065 -1181 13 -11 44 -38 71 -60 26 -22 52 -44 58 -50 6 -5 34
-28 61 -50 28 -22 55 -44 62 -50 25 -21 40 -32 128 -99 50 -37 98 -74 107 -81
9 -8 29 -22 45 -32 15 -9 30 -20 33 -23 3 -3 59 -41 125 -85 66 -44 121 -83
123 -87 2 -5 7 -8 12 -8 4 0 57 -31 117 -68 347 -218 795 -443 1218 -612 72
-28 150 -60 175 -70 84 -34 362 -128 555 -189 189 -58 596 -168 685 -184 14
-3 52 -12 85 -20 77 -20 408 -87 460 -93 22 -3 49 -8 60 -11 11 -3 29 -7 40
-8 11 -2 47 -8 80 -14 64 -11 167 -28 225 -36 19 -3 46 -7 60 -10 14 -2 45 -7
70 -10 25 -3 54 -7 65 -9 11 -2 51 -7 90 -11 38 -4 72 -8 75 -10 3 -1 43 -6
90 -10 47 -4 87 -8 90 -10 3 -2 39 -6 81 -9 42 -4 87 -9 100 -11 13 -2 60 -6
104 -10 44 -3 103 -8 130 -10 167 -16 401 -29 700 -42 360 -15 1383 -8 1650
12 22 1 92 6 155 10 142 8 250 16 390 30 19 1 71 6 115 10 44 4 91 9 105 10
76 8 158 17 180 20 14 2 54 7 90 10 36 4 74 9 84 11 11 2 42 6 70 9 28 3 62 7
76 10 14 2 42 7 63 10 20 3 52 7 70 10 17 3 46 7 62 9 65 9 114 18 215 36 58
11 121 22 140 25 29 5 128 24 205 41 11 2 34 7 50 10 64 11 306 67 440 100
511 128 985 288 1480 499 116 49 528 251 630 307 51 29 225 129 283 163 77 45
205 126 227 142 6 5 66 46 135 92 132 89 392 281 454 336 6 6 36 30 66 55 30
25 65 54 76 65 12 11 48 43 80 70 142 123 373 349 509 499 44 49 85 94 91 100
73 78 370 453 447 566 9 14 34 50 54 80 21 30 40 57 43 60 8 7 166 257 228
360 247 415 494 943 659 1410 74 211 182 550 218 685 9 33 18 67 21 75 36 125
159 666 188 825 3 17 10 55 16 85 6 30 12 64 14 75 2 11 7 43 11 70 5 28 9 52
10 55 0 3 4 26 8 51 4 25 10 57 12 70 2 13 11 76 20 139 9 63 18 126 20 140 2
14 7 48 10 75 3 28 8 66 10 85 3 19 7 58 10 85 4 28 9 68 12 90 3 22 6 57 8
79 11 129 17 194 20 216 2 14 7 65 11 115 3 49 8 105 9 125 2 19 6 91 10 160
4 69 8 141 10 160 12 121 20 497 19 960 0 527 -6 774 -29 1115 -4 50 -8 119
-10 155 -3 36 -7 90 -10 120 -2 30 -7 87 -11 125 -3 39 -7 81 -9 95 -2 14 -6
59 -10 100 -4 41 -8 86 -10 100 -2 14 -7 50 -10 80 -5 47 -12 104 -30 245 -9
63 -27 191 -31 210 -2 11 -6 38 -9 60 -2 22 -6 49 -8 60 -5 23 -14 74 -22 125
-5 32 -31 175 -41 225 -2 11 -7 36 -10 55 -8 44 -8 42 -38 186 -14 66 -35 161
-47 210 -11 49 -22 96 -24 104 -2 8 -20 78 -40 155 -20 77 -43 167 -51 200 -9
33 -19 69 -23 80 -9 22 -43 133 -47 151 -1 7 -24 81 -52 165 -146 448 -287
794 -490 1201 -51 103 -120 235 -154 295 -34 59 -70 124 -80 143 -23 42 -33
58 -123 200 -38 61 -77 122 -85 135 -8 13 -42 63 -75 111 -33 47 -67 96 -75
108 -99 144 -351 461 -454 570 -15 17 -56 62 -90 100 -92 103 -276 287 -411
410 -66 60 -124 114 -130 121 -5 6 -17 16 -27 21 -9 5 -34 25 -55 45 -36 33
-260 212 -319 254 -72 52 -152 111 -186 137 -20 15 -39 28 -42 28 -3 0 -47 28
-98 63 -551 373 -1249 705 -1997 949 -84 28 -158 51 -165 52 -18 4 -129 38
-151 47 -11 4 -47 14 -80 23 -33 8 -123 31 -200 51 -77 20 -147 38 -155 40 -8
2 -87 20 -175 40 -88 20 -172 38 -188 40 -15 2 -31 6 -35 9 -4 2 -28 7 -52 11
-25 3 -63 10 -85 15 -22 5 -56 11 -75 15 -19 3 -57 10 -85 15 -75 14 -104 19
-175 30 -36 5 -74 11 -85 14 -11 2 -41 6 -66 10 -25 4 -57 8 -70 10 -22 4 -84
12 -154 21 -16 2 -64 9 -105 14 -41 6 -100 13 -130 16 -30 3 -71 8 -90 10 -19
3 -60 7 -90 10 -30 3 -71 7 -90 10 -19 2 -69 7 -110 10 -41 3 -95 8 -120 10
-94 9 -276 21 -460 31 -69 3 -152 8 -185 10 -72 5 -1262 14 -1267 9z"/>
</g>
</svg>
